HIERARCHY
ROOT RootJoint
{
    OFFSET   0.000000   0.000000   0.000000
    CHANNELS 6 Xposition Yposition Zposition Xrotation Yrotation Zrotation
    JOINT pelvis_lowerback
    {
        OFFSET   0.000000   0.093605   0.000000
        CHANNELS 3 Xrotation Yrotation Zrotation
        JOINT lowerback_torso
        {
            OFFSET   0.000000   0.100000   0.000000
            CHANNELS 3 Xrotation Yrotation Zrotation
            JOINT torso_head
            {
                OFFSET   0.000000   0.282350   0.000000
                CHANNELS 3 Xrotation Yrotation Zrotation
                End Site
                {
                    OFFSET   0.000000   0.192650   0.000000
                }
            }
            JOINT rTorso_Clavicle
            {
                OFFSET  -0.001000   0.157500   0.000000
                CHANNELS 3 Xrotation Yrotation Zrotation
                JOINT rShoulder
                {
                    OFFSET  -0.117647   0.000000   0.000000
                    CHANNELS 3 Xrotation Yrotation Zrotation
                    JOINT rElbow
                    {
                        OFFSET  -0.245000   0.000000   0.000000
                        CHANNELS 3 Xrotation Yrotation Zrotation
                        JOINT rWrist
                        {
                            OFFSET  -0.240000   0.000000   0.000000
                            CHANNELS 3 Xrotation Yrotation Zrotation
                            End Site
                            {
                                OFFSET  -0.116353  -0.002500   0.000000
                            }
                        }
                    }
                }
            }
            JOINT lTorso_Clavicle
            {
                OFFSET   0.001000   0.157500   0.000000
                CHANNELS 3 Xrotation Yrotation Zrotation
                JOINT lShoulder
                {
                    OFFSET   0.117647   0.000000   0.000000
                    CHANNELS 3 Xrotation Yrotation Zrotation
                    JOINT lElbow
                    {
                        OFFSET   0.245000   0.000000   0.000000
                        CHANNELS 3 Xrotation Yrotation Zrotation
                        JOINT lWrist
                        {
                            OFFSET   0.240000   0.000000   0.000000
                            CHANNELS 3 Xrotation Yrotation Zrotation
                            End Site
                            {
                                OFFSET   0.116353  -0.002500   0.000000
                            }
                        }
                    }
                }
            }
        }
    }
    JOINT rHip
    {
        OFFSET  -0.100000  -0.051395   0.000000
        CHANNELS 3 Xrotation Yrotation Zrotation
        JOINT rKnee
        {
            OFFSET   0.000000  -0.410000   0.000000
            CHANNELS 3 Xrotation Yrotation Zrotation
            JOINT rAnkle
            {
                OFFSET   0.000000  -0.390000   0.000000
                CHANNELS 3 Xrotation Yrotation Zrotation
                JOINT rToeJoint
                {
                    OFFSET   0.000000  -0.050000   0.130000
                    CHANNELS 3 Xrotation Yrotation Zrotation
                    End Site
                    {
                        OFFSET  -0.010000   0.002000   0.060000
                    }
                }
            }
        }
    }
    JOINT lHip
    {
        OFFSET   0.100000  -0.051395   0.000000
        CHANNELS 3 Xrotation Yrotation Zrotation
        JOINT lKnee
        {
            OFFSET   0.000000  -0.410000   0.000000
            CHANNELS 3 Xrotation Yrotation Zrotation
            JOINT lAnkle
            {
                OFFSET   0.000000  -0.390000   0.000000
                CHANNELS 3 Xrotation Yrotation Zrotation
                JOINT lToeJoint
                {
                    OFFSET   0.000000  -0.050000   0.130000
                    CHANNELS 3 Xrotation Yrotation Zrotation
                    End Site
                    {
                        OFFSET   0.010000   0.002000   0.060000
                    }
                }
            }
        }
    }
}
MOTION
Frames: 7
Frame Time:   0.008333
 -2.382223   0.918322   4.071978   0.757970   9.755369  -0.854159  -2.713871   1.035667  -0.151325 -12.615337  -3.991990  -0.390745  -1.352524  -3.772017   1.814280 -19.804380  26.879765 -15.925162 -66.140983  20.701730  29.947872 179.983198  71.402133 -179.982274  -1.020068  -1.597120 -55.181815 -16.607973 -31.048410  18.419884 -68.872821 -19.541042 -31.066518 -179.972556 -86.383791 -179.985237  -6.458270 -20.833768  43.868813   2.544943  -7.599690  -7.275407  12.241495  -0.000011  -0.000719  -3.444212  -8.564739   5.706386 -16.202154  -0.000120  -0.000054   4.736261  -0.252785   3.680599   1.466575   0.000070  -0.000478  -7.043704   2.199052   1.056650   0.089302  -0.000002   0.000000
 -2.382391   0.918297   4.071564   1.042445   9.778215  -0.900203  -2.594420   1.090000  -0.137397 -12.851907  -3.940609  -0.359033  -1.371157  -3.698523   1.810488 -19.954477  26.886352 -16.079208 -66.707613  20.779193  30.102997 179.979669  71.948600 -179.978568  -1.150173  -1.599303 -54.884473 -16.808700 -31.105899  18.627190 -69.245391 -19.745391 -30.873638 -179.968360 -87.287475 -179.982018  -6.474428 -20.919793  44.124727   2.253961  -7.599232  -7.267023  12.196273  -0.000006  -0.000586  -3.461157  -8.593755   5.748099 -16.122478  -0.000137  -0.000051   4.437891  -0.299691   3.687586   1.414546   0.000060  -0.000374  -6.826908   2.204059   1.081381  -0.758500   0.000262   0.000126
 -2.382518   0.918343   4.071151   1.313287   9.791186  -0.924297  -2.475974   1.132099  -0.138528 -13.074476  -3.891787  -0.331381  -1.382715  -3.629915   1.807759 -20.105548  26.899709 -16.227514 -67.248126  20.850816  30.247909 179.977290  72.476254 -179.976039  -1.286324  -1.620464 -54.612792 -17.005332 -31.161820  18.832815 -69.597180 -19.932715 -30.683706 -179.964153 -88.164855 -179.978263  -6.485805 -20.989950  44.332718   1.964742  -7.597503  -7.282988  12.160874  -0.000003  -0.000475  -3.456750  -8.621027   5.783158 -16.068941  -0.000131  -0.000049   4.165819  -0.335954   3.670323   1.329962   0.000051  -0.000287  -6.764381   2.222856   1.070737  -0.589578   0.000224   0.000103
 -2.382620   0.918394   4.070736   1.569753   9.802863  -0.951082  -2.359476   1.166975  -0.132148 -13.279982  -3.849208  -0.304049  -1.392125  -3.566268   1.804891 -20.242181  26.904373 -16.382997 -67.740619  20.923507  30.366327 179.976497  72.970418 -179.975121  -0.969172  -1.274017 -53.551727 -17.189015 -31.205761  19.039243 -69.918231 -20.112803 -30.495335 -179.945185 -88.991767 -179.959294  -6.694311 -20.785640  43.523004   1.688482  -7.595895  -7.295291  12.128126  -0.000001  -0.000384  -3.444563  -8.647284   5.814101 -16.022546  -0.000121  -0.000046   3.908362  -0.369633   3.656305   1.245930   0.000043  -0.000217  -6.697336   2.240518   1.063942  -0.454337   0.000188   0.000084
 -2.382695   0.918443   4.070326   1.810533   9.811587  -0.977614  -2.247391   1.197119  -0.123606 -13.470564  -3.812518  -0.276021  -1.398635  -3.506890   1.802637 -20.388142  26.910098 -16.506442 -68.218566  20.968308  30.482528 179.975572  73.452387 -179.974083  -0.859570  -1.381269 -53.365801 -17.369994 -31.252606  19.211266 -70.230196 -20.274112 -30.329276 -179.874118 -89.749275 -179.887684  -6.914561 -21.059249  43.663454   1.427415  -7.593906  -7.307046  12.096779  -0.000000  -0.000311  -3.429232  -8.671758   5.842397 -15.977598  -0.000110  -0.000043   3.665703  -0.400244   3.642682   1.166479   0.000035  -0.000162  -6.629456   2.257978   1.058790  -0.346478   0.000158   0.000068
 -2.382746   0.918487   4.069926   2.036103   9.816450  -1.002215  -2.140131   1.223423  -0.113419 -13.646852  -3.780695  -0.247990  -1.404461  -3.451504   1.800117 -20.524978  26.912651 -16.617585 -68.664049  21.008436  30.590575 179.975466  73.896895 -179.973934  -0.816428  -1.423561 -53.171923 -17.541353 -31.296341  19.368096 -70.522367 -20.422454 -30.173557  -0.021634 -89.538596  -0.034427  -7.021202 -21.219723  43.802040   1.181437  -7.591786  -7.319774  12.066517   0.000001  -0.000251  -3.414083  -8.694888   5.868634 -15.930345  -0.000101  -0.000043   3.437538  -0.427481   3.627939   1.092321   0.000027  -0.000119  -6.562436   2.275793   1.054312  -0.260706   0.000132   0.000055
 -2.382775   0.918527   4.069538   2.247226   9.817689  -1.024676  -2.037852   1.246796  -0.102146 -13.809886  -3.752528  -0.220188  -1.409827  -3.399909   1.797686 -20.651884  26.914519 -16.721313 -69.079095  21.046830  30.691840 179.975975  74.308449 -179.974459  -0.789669  -1.453911 -52.971859 -17.699948 -31.338050  19.515368 -70.793732 -20.561700 -30.028461   0.005673 -88.871464  -0.006193  -7.096323 -21.345583  43.926600   0.950032  -7.589739  -7.333549  12.037181   0.000001  -0.000202  -3.399644  -8.716886   5.892969 -15.880901  -0.000092  -0.000043   3.223245  -0.451545   3.612001   1.023420   0.000021  -0.000084  -6.497128   2.293976   1.050234  -0.192660   0.000111   0.000044
